<svg width="23" height="23" viewBox="0 0 23 23" fill="none" xmlns="http://www.w3.org/2000/svg">
<path d="M20.7954 20.9181L16.0586 16.1812L20.7954 20.9181ZM16.0586 16.1812C16.8189 15.421 17.4219 14.5184 17.8334 13.525C18.2449 12.5317 18.4566 11.467 18.4566 10.3918C18.4566 9.31657 18.2449 8.25189 17.8334 7.25853C17.4219 6.26518 16.8189 5.36259 16.0586 4.6023C15.2983 3.84202 14.3957 3.23893 13.4023 2.82746C12.409 2.416 11.3443 2.20422 10.2691 2.20422C9.19389 2.20422 8.12921 2.416 7.13585 2.82746C6.14249 3.23893 5.23991 3.84202 4.47962 4.6023C2.94416 6.13777 2.08154 8.2203 2.08154 10.3918C2.08154 12.5632 2.94416 14.6458 4.47962 16.1812C6.01509 17.7167 8.09762 18.5793 10.2691 18.5793C12.4406 18.5793 14.5231 17.7167 16.0586 16.1812V16.1812Z" stroke="white" stroke-width="3" stroke-linecap="round" stroke-linejoin="round"/>
</svg>
